solid OpenSCAD_Model
  facet normal -1 0 0
    outer loop
      vertex -50 22 -1
      vertex -50 22 15
      vertex -50 26 -1
    endloop
  endfacet
  facet normal -1 0 0
    outer loop
      vertex -50 26 -1
      vertex -50 22 15
      vertex -50 26 15
    endloop
  endfacet
  facet normal 0 -1 0
    outer loop
      vertex -46.8753 22 6.50077
      vertex -50 22 -1
      vertex -41.5 22 -1
    endloop
  endfacet
  facet normal 0 -1 0
    outer loop
      vertex -50 22 15
      vertex -50 22 -1
      vertex -46.8753 22 6.50077
    endloop
  endfacet
  facet normal 0 -1 0
    outer loop
      vertex -50 22 15
      vertex -46.8753 22 6.50077
      vertex -47.2 22 7.5
    endloop
  endfacet
  facet normal 0 -1 0
    outer loop
      vertex -43.8 22 7.5
      vertex -44.1247 22 6.50077
      vertex -41.5 22 -1
    endloop
  endfacet
  facet normal 0 -1 0
    outer loop
      vertex -50 22 15
      vertex -47.2 22 7.5
      vertex -46.8753 22 8.49924
    endloop
  endfacet
  facet normal 0 -1 0
    outer loop
      vertex -44.9747 22 5.8832
      vertex -46.0253 22 5.8832
      vertex -41.5 22 -1
    endloop
  endfacet
  facet normal 0 -1 0
    outer loop
      vertex -41.5 22 15
      vertex -50 22 15
      vertex -46.0253 22 9.1168
    endloop
  endfacet
  facet normal 0 -1 0
    outer loop
      vertex -44.1247 22 6.50077
      vertex -44.9747 22 5.8832
      vertex -41.5 22 -1
    endloop
  endfacet
  facet normal 0 -1 0
    outer loop
      vertex -41.5 22 15
      vertex -46.0253 22 9.1168
      vertex -44.9747 22 9.1168
    endloop
  endfacet
  facet normal 0 -1 0
    outer loop
      vertex -41.5 22 15
      vertex -44.9747 22 9.1168
      vertex -44.1247 22 8.49924
    endloop
  endfacet
  facet normal 0 -1 0
    outer loop
      vertex -41.5 22 15
      vertex -43.8 22 7.5
      vertex -41.5 22 -1
    endloop
  endfacet
  facet normal 0 -1 0
    outer loop
      vertex -41.5 22 15
      vertex -44.1247 22 8.49924
      vertex -43.8 22 7.5
    endloop
  endfacet
  facet normal 0 -1 0
    outer loop
      vertex -46.0253 22 5.8832
      vertex -46.8753 22 6.50077
      vertex -41.5 22 -1
    endloop
  endfacet
  facet normal 0 -1 0
    outer loop
      vertex -46.8753 22 8.49924
      vertex -46.0253 22 9.1168
      vertex -50 22 15
    endloop
  endfacet
  facet normal 0 0 -1
    outer loop
      vertex -50 22 -1
      vertex -50 26 -1
      vertex -41.5 22 -1
    endloop
  endfacet
  facet normal 0 0 -1
    outer loop
      vertex -41.5 22 -1
      vertex -50 26 -1
      vertex 0 26 -1
    endloop
  endfacet
  facet normal 0 0 -1
    outer loop
      vertex -8.5 22 -1
      vertex 0 26 -1
      vertex 0 22 -1
    endloop
  endfacet
  facet normal 0 0 -1
    outer loop
      vertex -41.5 22 -1
      vertex 0 26 -1
      vertex -8.5 22 -1
    endloop
  endfacet
  facet normal 0 0 -1
    outer loop
      vertex -8.5 22 -1
      vertex -8.5 0 -1
      vertex -41.5 22 -1
    endloop
  endfacet
  facet normal 0 0 -1
    outer loop
      vertex -41.5 22 -1
      vertex -8.5 0 -1
      vertex -41.5 0 -1
    endloop
  endfacet
  facet normal 0 1 0
    outer loop
      vertex -44.1247 26 8.49924
      vertex -50 26 15
      vertex 0 26 -1
    endloop
  endfacet
  facet normal 0 1 0
    outer loop
      vertex -5.02533 26 9.1168
      vertex -50 26 15
      vertex 0 26 15
    endloop
  endfacet
  facet normal 0 1 0
    outer loop
      vertex -50 26 -1
      vertex -50 26 15
      vertex -47.2 26 7.5
    endloop
  endfacet
  facet normal 0 1 0
    outer loop
      vertex -50 26 -1
      vertex -47.2 26 7.5
      vertex -46.8753 26 6.50077
    endloop
  endfacet
  facet normal 0 1 0
    outer loop
      vertex -50 26 -1
      vertex -46.8753 26 6.50077
      vertex -46.0253 26 5.8832
    endloop
  endfacet
  facet normal 0 1 0
    outer loop
      vertex -50 26 -1
      vertex -46.0253 26 5.8832
      vertex 0 26 -1
    endloop
  endfacet
  facet normal 0 1 0
    outer loop
      vertex -46.0253 26 5.8832
      vertex -44.9747 26 5.8832
      vertex 0 26 -1
    endloop
  endfacet
  facet normal 0 1 0
    outer loop
      vertex -43.8 26 7.5
      vertex 0 26 -1
      vertex -44.1247 26 6.50077
    endloop
  endfacet
  facet normal 0 1 0
    outer loop
      vertex -3.97467 26 5.8832
      vertex 0 26 -1
      vertex -5.02533 26 5.8832
    endloop
  endfacet
  facet normal 0 1 0
    outer loop
      vertex -46.0253 26 9.1168
      vertex -50 26 15
      vertex -44.9747 26 9.1168
    endloop
  endfacet
  facet normal 0 1 0
    outer loop
      vertex -44.9747 26 9.1168
      vertex -50 26 15
      vertex -44.1247 26 8.49924
    endloop
  endfacet
  facet normal 0 1 0
    outer loop
      vertex -43.8 26 7.5
      vertex -44.1247 26 8.49924
      vertex 0 26 -1
    endloop
  endfacet
  facet normal 0 1 0
    outer loop
      vertex -46.8753 26 8.49924
      vertex -50 26 15
      vertex -46.0253 26 9.1168
    endloop
  endfacet
  facet normal 0 1 0
    outer loop
      vertex -47.2 26 7.5
      vertex -50 26 15
      vertex -46.8753 26 8.49924
    endloop
  endfacet
  facet normal 0 1 0
    outer loop
      vertex -5.87533 26 6.50077
      vertex -50 26 15
      vertex -6.2 26 7.5
    endloop
  endfacet
  facet normal 0 1 0
    outer loop
      vertex 0 26 -1
      vertex -50 26 15
      vertex -5.87533 26 6.50077
    endloop
  endfacet
  facet normal 0 1 0
    outer loop
      vertex 0 26 -1
      vertex -5.87533 26 6.50077
      vertex -5.02533 26 5.8832
    endloop
  endfacet
  facet normal 0 1 0
    outer loop
      vertex -3.12467 26 8.49924
      vertex 0 26 15
      vertex -2.8 26 7.5
    endloop
  endfacet
  facet normal 0 1 0
    outer loop
      vertex 0 26 -1
      vertex -3.97467 26 5.8832
      vertex -3.12467 26 6.50077
    endloop
  endfacet
  facet normal 0 1 0
    outer loop
      vertex 0 26 -1
      vertex -3.12467 26 6.50077
      vertex 0 26 15
    endloop
  endfacet
  facet normal 0 1 0
    outer loop
      vertex -3.12467 26 6.50077
      vertex -2.8 26 7.5
      vertex 0 26 15
    endloop
  endfacet
  facet normal 0 1 0
    outer loop
      vertex -5.02533 26 9.1168
      vertex 0 26 15
      vertex -3.97467 26 9.1168
    endloop
  endfacet
  facet normal 0 1 0
    outer loop
      vertex -3.12467 26 8.49924
      vertex -3.97467 26 9.1168
      vertex 0 26 15
    endloop
  endfacet
  facet normal 0 1 0
    outer loop
      vertex -5.87533 26 8.49924
      vertex -50 26 15
      vertex -5.02533 26 9.1168
    endloop
  endfacet
  facet normal 0 1 0
    outer loop
      vertex -6.2 26 7.5
      vertex -50 26 15
      vertex -5.87533 26 8.49924
    endloop
  endfacet
  facet normal 0 1 0
    outer loop
      vertex -44.1247 26 6.50077
      vertex 0 26 -1
      vertex -44.9747 26 5.8832
    endloop
  endfacet
  facet normal 0 0 1
    outer loop
      vertex -28.65 12.5 15
      vertex -21.35 12.5 15
      vertex -41.5 22 15
    endloop
  endfacet
  facet normal 0 0 1
    outer loop
      vertex -50 26 15
      vertex -50 22 15
      vertex -41.5 22 15
    endloop
  endfacet
  facet normal 0 0 1
    outer loop
      vertex -8.5 12.5 15
      vertex -50 26 15
      vertex -41.5 22 15
    endloop
  endfacet
  facet normal 0 0 1
    outer loop
      vertex -41.5 12.5 15
      vertex -28.65 12.5 15
      vertex -41.5 22 15
    endloop
  endfacet
  facet normal 0 0 1
    outer loop
      vertex -28.65 10.5 15
      vertex -27.4074 2.5 15
      vertex -28.65 12.5 15
    endloop
  endfacet
  facet normal 0 0 1
    outer loop
      vertex -8.5 22 15
      vertex 0 22 15
      vertex -50 26 15
    endloop
  endfacet
  facet normal 0 0 1
    outer loop
      vertex -28.65 3.74264 15
      vertex -27.4074 2.5 15
      vertex -28.65 10.5 15
    endloop
  endfacet
  facet normal 0 0 1
    outer loop
      vertex -27.4074 2.5 15
      vertex -22.6 2.5 15
      vertex -28.65 12.5 15
    endloop
  endfacet
  facet normal 0 0 1
    outer loop
      vertex -22.6 2.5 15
      vertex -21.35 3.75 15
      vertex -28.65 12.5 15
    endloop
  endfacet
  facet normal 0 0 1
    outer loop
      vertex -21.35 3.75 15
      vertex -21.35 6.5 15
      vertex -28.65 12.5 15
    endloop
  endfacet
  facet normal 0 0 1
    outer loop
      vertex -21.35 12.5 15
      vertex -8.5 12.5 15
      vertex -41.5 22 15
    endloop
  endfacet
  facet normal 0 0 1
    outer loop
      vertex -8.5 12.5 15
      vertex -8.5 22 15
      vertex -50 26 15
    endloop
  endfacet
  facet normal 0 0 1
    outer loop
      vertex 0 22 15
      vertex 0 26 15
      vertex -50 26 15
    endloop
  endfacet
  facet normal 0 0 1
    outer loop
      vertex -21.35 6.5 15
      vertex -21.35 12.5 15
      vertex -28.65 12.5 15
    endloop
  endfacet
  facet normal -1 0 0
    outer loop
      vertex -41.5 0 -1
      vertex -41.5 0 15
      vertex -41.5 8.5 3
    endloop
  endfacet
  facet normal -1 0 0
    outer loop
      vertex -41.5 0 -1
      vertex -41.5 8.5 3
      vertex -41.5 22 -1
    endloop
  endfacet
  facet normal -1 0 0
    outer loop
      vertex -41.5 10.5 13
      vertex -41.5 22 -1
      vertex -41.5 10.5 3
    endloop
  endfacet
  facet normal -1 0 0
    outer loop
      vertex -41.5 8.5 3
      vertex -41.5 10.5 3
      vertex -41.5 22 -1
    endloop
  endfacet
  facet normal -1 0 0
    outer loop
      vertex -41.5 10.5 13
      vertex -41.5 12.5 15
      vertex -41.5 22 -1
    endloop
  endfacet
  facet normal -1 0 0
    outer loop
      vertex -41.5 22 -1
      vertex -41.5 12.5 15
      vertex -41.5 22 15
    endloop
  endfacet
  facet normal -1 0 0
    outer loop
      vertex -41.5 8.5 3
      vertex -41.5 0 15
      vertex -41.5 6.5 15
    endloop
  endfacet
  facet normal -1 0 0
    outer loop
      vertex -41.5 8.5 3
      vertex -41.5 6.5 15
      vertex -41.5 8.5 13
    endloop
  endfacet
  facet normal 0.587785 -1.79638e-16 0.809017
    outer loop
      vertex -46.0253 22 5.8832
      vertex -46.0253 26 5.8832
      vertex -46.8753 26 6.50077
    endloop
  endfacet
  facet normal 0.587785 -1.79638e-16 0.809017
    outer loop
      vertex -46.8753 22 6.50077
      vertex -46.0253 22 5.8832
      vertex -46.8753 26 6.50077
    endloop
  endfacet
  facet normal 0.951057 -6.86155e-17 0.309017
    outer loop
      vertex -46.8753 22 6.50077
      vertex -46.8753 26 6.50077
      vertex -47.2 26 7.5
    endloop
  endfacet
  facet normal 0.951057 -6.86155e-17 0.309017
    outer loop
      vertex -47.2 22 7.5
      vertex -46.8753 22 6.50077
      vertex -47.2 26 7.5
    endloop
  endfacet
  facet normal 0 -2.22045e-16 1
    outer loop
      vertex -44.9747 22 5.8832
      vertex -44.9747 26 5.8832
      vertex -46.0253 26 5.8832
    endloop
  endfacet
  facet normal 0 -2.22045e-16 1
    outer loop
      vertex -46.0253 22 5.8832
      vertex -44.9747 22 5.8832
      vertex -46.0253 26 5.8832
    endloop
  endfacet
  facet normal -0.587785 -1.79638e-16 0.809017
    outer loop
      vertex -44.1247 22 6.50077
      vertex -44.1247 26 6.50077
      vertex -44.9747 26 5.8832
    endloop
  endfacet
  facet normal -0.587785 -1.79638e-16 0.809017
    outer loop
      vertex -44.9747 22 5.8832
      vertex -44.1247 22 6.50077
      vertex -44.9747 26 5.8832
    endloop
  endfacet
  facet normal -0.951057 -6.86155e-17 0.309017
    outer loop
      vertex -43.8 26 7.5
      vertex -44.1247 26 6.50077
      vertex -43.8 22 7.5
    endloop
  endfacet
  facet normal -0.951057 -6.86155e-17 0.309017
    outer loop
      vertex -43.8 22 7.5
      vertex -44.1247 26 6.50077
      vertex -44.1247 22 6.50077
    endloop
  endfacet
  facet normal -0.951057 6.86155e-17 -0.309017
    outer loop
      vertex -43.8 26 7.5
      vertex -43.8 22 7.5
      vertex -44.1247 26 8.49924
    endloop
  endfacet
  facet normal -0.951057 6.86155e-17 -0.309017
    outer loop
      vertex -44.1247 26 8.49924
      vertex -43.8 22 7.5
      vertex -44.1247 22 8.49924
    endloop
  endfacet
  facet normal -0.587785 1.79638e-16 -0.809017
    outer loop
      vertex -44.1247 26 8.49924
      vertex -44.1247 22 8.49924
      vertex -44.9747 26 9.1168
    endloop
  endfacet
  facet normal -0.587785 1.79638e-16 -0.809017
    outer loop
      vertex -44.9747 26 9.1168
      vertex -44.1247 22 8.49924
      vertex -44.9747 22 9.1168
    endloop
  endfacet
  facet normal 0 2.22045e-16 -1
    outer loop
      vertex -44.9747 26 9.1168
      vertex -44.9747 22 9.1168
      vertex -46.0253 26 9.1168
    endloop
  endfacet
  facet normal 0 2.22045e-16 -1
    outer loop
      vertex -46.0253 26 9.1168
      vertex -44.9747 22 9.1168
      vertex -46.0253 22 9.1168
    endloop
  endfacet
  facet normal 0.587785 1.79638e-16 -0.809017
    outer loop
      vertex -46.0253 26 9.1168
      vertex -46.0253 22 9.1168
      vertex -46.8753 26 8.49924
    endloop
  endfacet
  facet normal 0.587785 1.79638e-16 -0.809017
    outer loop
      vertex -46.8753 26 8.49924
      vertex -46.0253 22 9.1168
      vertex -46.8753 22 8.49924
    endloop
  endfacet
  facet normal 0.951057 6.86155e-17 -0.309017
    outer loop
      vertex -47.2 26 7.5
      vertex -46.8753 26 8.49924
      vertex -46.8753 22 8.49924
    endloop
  endfacet
  facet normal 0.951057 6.86155e-17 -0.309017
    outer loop
      vertex -47.2 22 7.5
      vertex -47.2 26 7.5
      vertex -46.8753 22 8.49924
    endloop
  endfacet
  facet normal 0 -1 0
    outer loop
      vertex -18.35 0 3
      vertex -41.5 0 -1
      vertex -8.5 0 -1
    endloop
  endfacet
  facet normal 0 -1 0
    outer loop
      vertex -31.65 0 3
      vertex -31.65 0 15
      vertex -41.5 0 15
    endloop
  endfacet
  facet normal 0 -1 0
    outer loop
      vertex -8.5 0 15
      vertex -18.35 0 15
      vertex -8.5 0 -1
    endloop
  endfacet
  facet normal 0 -1 0
    outer loop
      vertex -31.65 0 3
      vertex -41.5 0 -1
      vertex -18.35 0 3
    endloop
  endfacet
  facet normal 0 -1 0
    outer loop
      vertex -41.5 0 15
      vertex -41.5 0 -1
      vertex -31.65 0 3
    endloop
  endfacet
  facet normal 0 -1 0
    outer loop
      vertex -18.35 0 15
      vertex -18.35 0 3
      vertex -8.5 0 -1
    endloop
  endfacet
  facet normal 1 0 0
    outer loop
      vertex -8.5 10.5 3
      vertex -8.5 0 -1
      vertex -8.5 22 -1
    endloop
  endfacet
  facet normal 1 0 0
    outer loop
      vertex -8.5 8.5 3
      vertex -8.5 8.5 13
      vertex -8.5 0 15
    endloop
  endfacet
  facet normal 1 0 0
    outer loop
      vertex -8.5 22 15
      vertex -8.5 12.5 15
      vertex -8.5 22 -1
    endloop
  endfacet
  facet normal 1 0 0
    outer loop
      vertex -8.5 12.5 15
      vertex -8.5 10.5 13
      vertex -8.5 22 -1
    endloop
  endfacet
  facet normal 1 0 0
    outer loop
      vertex -8.5 8.5 3
      vertex -8.5 0 -1
      vertex -8.5 10.5 3
    endloop
  endfacet
  facet normal 1 0 0
    outer loop
      vertex -8.5 8.5 13
      vertex -8.5 6.5 15
      vertex -8.5 0 15
    endloop
  endfacet
  facet normal 1 0 0
    outer loop
      vertex -8.5 0 15
      vertex -8.5 0 -1
      vertex -8.5 8.5 3
    endloop
  endfacet
  facet normal 1 0 0
    outer loop
      vertex -8.5 10.5 13
      vertex -8.5 10.5 3
      vertex -8.5 22 -1
    endloop
  endfacet
  facet normal 0 -1 0
    outer loop
      vertex -5.87533 22 6.50077
      vertex -8.5 22 -1
      vertex 0 22 -1
    endloop
  endfacet
  facet normal 0 -1 0
    outer loop
      vertex -5.02533 22 5.8832
      vertex -5.87533 22 6.50077
      vertex 0 22 -1
    endloop
  endfacet
  facet normal 0 -1 0
    outer loop
      vertex -6.2 22 7.5
      vertex -8.5 22 -1
      vertex -5.87533 22 6.50077
    endloop
  endfacet
  facet normal 0 -1 0
    outer loop
      vertex -8.5 22 15
      vertex -8.5 22 -1
      vertex -6.2 22 7.5
    endloop
  endfacet
  facet normal 0 -1 0
    outer loop
      vertex -3.97467 22 5.8832
      vertex -5.02533 22 5.8832
      vertex 0 22 -1
    endloop
  endfacet
  facet normal 0 -1 0
    outer loop
      vertex 0 22 15
      vertex -8.5 22 15
      vertex -5.02533 22 9.1168
    endloop
  endfacet
  facet normal 0 -1 0
    outer loop
      vertex -3.12467 22 6.50077
      vertex -3.97467 22 5.8832
      vertex 0 22 -1
    endloop
  endfacet
  facet normal 0 -1 0
    outer loop
      vertex 0 22 15
      vertex -5.02533 22 9.1168
      vertex -3.97467 22 9.1168
    endloop
  endfacet
  facet normal 0 -1 0
    outer loop
      vertex 0 22 15
      vertex -3.12467 22 8.49924
      vertex 0 22 -1
    endloop
  endfacet
  facet normal 0 -1 0
    outer loop
      vertex 0 22 15
      vertex -3.97467 22 9.1168
      vertex -3.12467 22 8.49924
    endloop
  endfacet
  facet normal 0 -1 0
    outer loop
      vertex -3.12467 22 8.49924
      vertex -2.8 22 7.5
      vertex 0 22 -1
    endloop
  endfacet
  facet normal 0 -1 0
    outer loop
      vertex -2.8 22 7.5
      vertex -3.12467 22 6.50077
      vertex 0 22 -1
    endloop
  endfacet
  facet normal 0 -1 0
    outer loop
      vertex -6.2 22 7.5
      vertex -5.87533 22 8.49924
      vertex -8.5 22 15
    endloop
  endfacet
  facet normal 0 -1 0
    outer loop
      vertex -5.87533 22 8.49924
      vertex -5.02533 22 9.1168
      vertex -8.5 22 15
    endloop
  endfacet
  facet normal 1 0 0
    outer loop
      vertex 0 22 15
      vertex 0 22 -1
      vertex 0 26 -1
    endloop
  endfacet
  facet normal 1 0 0
    outer loop
      vertex 0 26 15
      vertex 0 22 15
      vertex 0 26 -1
    endloop
  endfacet
  facet normal 0.951057 -6.86155e-17 0.309017
    outer loop
      vertex -5.87533 22 6.50077
      vertex -5.87533 26 6.50077
      vertex -6.2 26 7.5
    endloop
  endfacet
  facet normal 0.951057 -6.86155e-17 0.309017
    outer loop
      vertex -6.2 22 7.5
      vertex -5.87533 22 6.50077
      vertex -6.2 26 7.5
    endloop
  endfacet
  facet normal 0.951057 6.86155e-17 -0.309017
    outer loop
      vertex -6.2 26 7.5
      vertex -5.87533 26 8.49924
      vertex -5.87533 22 8.49924
    endloop
  endfacet
  facet normal 0.951057 6.86155e-17 -0.309017
    outer loop
      vertex -6.2 22 7.5
      vertex -6.2 26 7.5
      vertex -5.87533 22 8.49924
    endloop
  endfacet
  facet normal 0.587785 1.79638e-16 -0.809017
    outer loop
      vertex -5.02533 26 9.1168
      vertex -5.02533 22 9.1168
      vertex -5.87533 26 8.49924
    endloop
  endfacet
  facet normal 0.587785 1.79638e-16 -0.809017
    outer loop
      vertex -5.87533 26 8.49924
      vertex -5.02533 22 9.1168
      vertex -5.87533 22 8.49924
    endloop
  endfacet
  facet normal 0 2.22045e-16 -1
    outer loop
      vertex -3.97467 26 9.1168
      vertex -3.97467 22 9.1168
      vertex -5.02533 26 9.1168
    endloop
  endfacet
  facet normal 0 2.22045e-16 -1
    outer loop
      vertex -5.02533 26 9.1168
      vertex -3.97467 22 9.1168
      vertex -5.02533 22 9.1168
    endloop
  endfacet
  facet normal -0.587785 1.79638e-16 -0.809017
    outer loop
      vertex -3.12467 26 8.49924
      vertex -3.12467 22 8.49924
      vertex -3.97467 26 9.1168
    endloop
  endfacet
  facet normal -0.587785 1.79638e-16 -0.809017
    outer loop
      vertex -3.97467 26 9.1168
      vertex -3.12467 22 8.49924
      vertex -3.97467 22 9.1168
    endloop
  endfacet
  facet normal -0.951057 6.86155e-17 -0.309017
    outer loop
      vertex -2.8 26 7.5
      vertex -2.8 22 7.5
      vertex -3.12467 26 8.49924
    endloop
  endfacet
  facet normal -0.951057 6.86155e-17 -0.309017
    outer loop
      vertex -3.12467 26 8.49924
      vertex -2.8 22 7.5
      vertex -3.12467 22 8.49924
    endloop
  endfacet
  facet normal -0.951057 -6.86155e-17 0.309017
    outer loop
      vertex -2.8 26 7.5
      vertex -3.12467 26 6.50077
      vertex -2.8 22 7.5
    endloop
  endfacet
  facet normal -0.951057 -6.86155e-17 0.309017
    outer loop
      vertex -2.8 22 7.5
      vertex -3.12467 26 6.50077
      vertex -3.12467 22 6.50077
    endloop
  endfacet
  facet normal -0.587785 -1.79638e-16 0.809017
    outer loop
      vertex -3.12467 22 6.50077
      vertex -3.12467 26 6.50077
      vertex -3.97467 26 5.8832
    endloop
  endfacet
  facet normal -0.587785 -1.79638e-16 0.809017
    outer loop
      vertex -3.97467 22 5.8832
      vertex -3.12467 22 6.50077
      vertex -3.97467 26 5.8832
    endloop
  endfacet
  facet normal 0 -2.22045e-16 1
    outer loop
      vertex -3.97467 22 5.8832
      vertex -3.97467 26 5.8832
      vertex -5.02533 26 5.8832
    endloop
  endfacet
  facet normal 0 -2.22045e-16 1
    outer loop
      vertex -5.02533 22 5.8832
      vertex -3.97467 22 5.8832
      vertex -5.02533 26 5.8832
    endloop
  endfacet
  facet normal 0.587785 -1.79638e-16 0.809017
    outer loop
      vertex -5.02533 22 5.8832
      vertex -5.02533 26 5.8832
      vertex -5.87533 26 6.50077
    endloop
  endfacet
  facet normal 0.587785 -1.79638e-16 0.809017
    outer loop
      vertex -5.87533 22 6.50077
      vertex -5.02533 22 5.8832
      vertex -5.87533 26 6.50077
    endloop
  endfacet
  facet normal 0 -0.707107 0.707107
    outer loop
      vertex -8.5 12.5 15
      vertex -21.35 10.5 13
      vertex -8.5 10.5 13
    endloop
  endfacet
  facet normal 0 -0.707107 0.707107
    outer loop
      vertex -21.35 12.5 15
      vertex -21.35 10.5 13
      vertex -8.5 12.5 15
    endloop
  endfacet
  facet normal 0 -0.707107 0.707107
    outer loop
      vertex -21.35 9.5 12
      vertex -21.35 10.5 13
      vertex -21.35 12.5 15
    endloop
  endfacet
  facet normal 1 0 0
    outer loop
      vertex -21.35 9.5 12
      vertex -21.35 12.5 15
      vertex -21.35 6.5 15
    endloop
  endfacet
  facet normal 1 0 0
    outer loop
      vertex -21.35 10.5 3
      vertex -21.35 10.5 13
      vertex -21.35 9.5 12
    endloop
  endfacet
  facet normal 1 0 0
    outer loop
      vertex -21.35 6.5 15
      vertex -21.35 10.5 3
      vertex -21.35 9.5 12
    endloop
  endfacet
  facet normal 1 0 0
    outer loop
      vertex -21.35 6.5 15
      vertex -21.35 3.75 15
      vertex -21.35 10.5 3
    endloop
  endfacet
  facet normal 1 0 0
    outer loop
      vertex -21.35 3.75 15
      vertex -21.35 3.75 3
      vertex -21.35 10.5 3
    endloop
  endfacet
  facet normal 0.707107 -0.707107 0
    outer loop
      vertex -21.35 3.75 3
      vertex -21.35 3.75 15
      vertex -22.6 2.5 15
    endloop
  endfacet
  facet normal 0.707107 -0.707107 0
    outer loop
      vertex -22.6 2.5 3
      vertex -21.35 3.75 3
      vertex -22.6 2.5 15
    endloop
  endfacet
  facet normal 0 -1 0
    outer loop
      vertex -22.6 2.5 3
      vertex -22.6 2.5 15
      vertex -27.4074 2.5 15
    endloop
  endfacet
  facet normal 0 -1 0
    outer loop
      vertex -27.4074 2.5 3
      vertex -22.6 2.5 3
      vertex -27.4074 2.5 15
    endloop
  endfacet
  facet normal -0.707107 -0.707107 0
    outer loop
      vertex -27.4074 2.5 3
      vertex -27.4074 2.5 15
      vertex -28.65 3.74264 15
    endloop
  endfacet
  facet normal -0.707107 -0.707107 0
    outer loop
      vertex -28.65 3.74264 3
      vertex -27.4074 2.5 3
      vertex -28.65 3.74264 15
    endloop
  endfacet
  facet normal -1 0 0
    outer loop
      vertex -28.65 10.5 15
      vertex -28.65 10.5 3
      vertex -28.65 3.74264 15
    endloop
  endfacet
  facet normal -1 0 0
    outer loop
      vertex -28.65 3.74264 15
      vertex -28.65 10.5 3
      vertex -28.65 3.74264 3
    endloop
  endfacet
  facet normal 0 -1 0
    outer loop
      vertex -41.5 10.5 13
      vertex -28.65 10.5 3
      vertex -28.65 10.5 13
    endloop
  endfacet
  facet normal 0 -1 0
    outer loop
      vertex -28.65 10.5 13
      vertex -28.65 10.5 3
      vertex -28.65 10.5 15
    endloop
  endfacet
  facet normal 0 -1 0
    outer loop
      vertex -41.5 10.5 3
      vertex -28.65 10.5 3
      vertex -41.5 10.5 13
    endloop
  endfacet
  facet normal -1 0 0
    outer loop
      vertex -28.65 10.5 15
      vertex -28.65 12.5 15
      vertex -28.65 10.5 13
    endloop
  endfacet
  facet normal 0 -0.707107 0.707107
    outer loop
      vertex -28.65 10.5 13
      vertex -28.65 12.5 15
      vertex -41.5 12.5 15
    endloop
  endfacet
  facet normal 0 -0.707107 0.707107
    outer loop
      vertex -41.5 10.5 13
      vertex -28.65 10.5 13
      vertex -41.5 12.5 15
    endloop
  endfacet
  facet normal 0 0 1
    outer loop
      vertex -28.65 3.74264 3
      vertex -31.65 6.75 3
      vertex -31.65 0 3
    endloop
  endfacet
  facet normal 0 0 1
    outer loop
      vertex -21.35 3.75 3
      vertex -18.35 0 3
      vertex -18.35 6.73947 3
    endloop
  endfacet
  facet normal 0 0 1
    outer loop
      vertex -22.6 2.5 3
      vertex -27.4074 2.5 3
      vertex -18.35 0 3
    endloop
  endfacet
  facet normal 0 0 1
    outer loop
      vertex -16.5895 8.5 3
      vertex -8.5 8.5 3
      vertex -8.5 10.5 3
    endloop
  endfacet
  facet normal 0 0 1
    outer loop
      vertex -31.65 6.75 3
      vertex -28.65 10.5 3
      vertex -33.4 8.5 3
    endloop
  endfacet
  facet normal 0 0 1
    outer loop
      vertex -22.6 2.5 3
      vertex -18.35 0 3
      vertex -21.35 3.75 3
    endloop
  endfacet
  facet normal 0 0 1
    outer loop
      vertex -18.35 0 3
      vertex -27.4074 2.5 3
      vertex -31.65 0 3
    endloop
  endfacet
  facet normal 0 0 1
    outer loop
      vertex -27.4074 2.5 3
      vertex -28.65 3.74264 3
      vertex -31.65 0 3
    endloop
  endfacet
  facet normal 0 0 1
    outer loop
      vertex -33.4 8.5 3
      vertex -28.65 10.5 3
      vertex -41.5 10.5 3
    endloop
  endfacet
  facet normal 0 0 1
    outer loop
      vertex -21.35 10.5 3
      vertex -16.5895 8.5 3
      vertex -8.5 10.5 3
    endloop
  endfacet
  facet normal 0 0 1
    outer loop
      vertex -41.5 8.5 3
      vertex -33.4 8.5 3
      vertex -41.5 10.5 3
    endloop
  endfacet
  facet normal 0 0 1
    outer loop
      vertex -21.35 10.5 3
      vertex -18.35 6.73947 3
      vertex -16.5895 8.5 3
    endloop
  endfacet
  facet normal 0 0 1
    outer loop
      vertex -21.35 10.5 3
      vertex -21.35 3.75 3
      vertex -18.35 6.73947 3
    endloop
  endfacet
  facet normal 0 0 1
    outer loop
      vertex -28.65 3.74264 3
      vertex -28.65 10.5 3
      vertex -31.65 6.75 3
    endloop
  endfacet
  facet normal 0 1 0
    outer loop
      vertex -33.4 8.5 13
      vertex -33.4 8.5 3
      vertex -41.5 8.5 13
    endloop
  endfacet
  facet normal 0 1 0
    outer loop
      vertex -41.5 8.5 13
      vertex -33.4 8.5 3
      vertex -41.5 8.5 3
    endloop
  endfacet
  facet normal 0 0.707107 0.707107
    outer loop
      vertex -31.65 6.5 15
      vertex -31.65 6.75 14.75
      vertex -33.4 8.5 13
    endloop
  endfacet
  facet normal 0 0.707107 0.707107
    outer loop
      vertex -41.5 6.5 15
      vertex -31.65 6.5 15
      vertex -41.5 8.5 13
    endloop
  endfacet
  facet normal 0 0.707107 0.707107
    outer loop
      vertex -41.5 8.5 13
      vertex -31.65 6.5 15
      vertex -33.4 8.5 13
    endloop
  endfacet
  facet normal 0 0 1
    outer loop
      vertex -41.5 6.5 15
      vertex -41.5 0 15
      vertex -31.65 0 15
    endloop
  endfacet
  facet normal 0 0 1
    outer loop
      vertex -31.65 6.5 15
      vertex -41.5 6.5 15
      vertex -31.65 0 15
    endloop
  endfacet
  facet normal 1 0 0
    outer loop
      vertex -31.65 6.75 3
      vertex -31.65 6.75 14.75
      vertex -31.65 6.5 15
    endloop
  endfacet
  facet normal 1 0 0
    outer loop
      vertex -31.65 0 3
      vertex -31.65 6.75 3
      vertex -31.65 0 15
    endloop
  endfacet
  facet normal 1 0 0
    outer loop
      vertex -31.65 0 15
      vertex -31.65 6.75 3
      vertex -31.65 6.5 15
    endloop
  endfacet
  facet normal -1 0 0
    outer loop
      vertex -18.35 6.5 15
      vertex -18.35 6.73947 14.7605
      vertex -18.35 0 15
    endloop
  endfacet
  facet normal -1 0 0
    outer loop
      vertex -18.35 0 15
      vertex -18.35 6.73947 14.7605
      vertex -18.35 6.73947 3
    endloop
  endfacet
  facet normal -1 0 0
    outer loop
      vertex -18.35 0 15
      vertex -18.35 6.73947 3
      vertex -18.35 0 3
    endloop
  endfacet
  facet normal 0 0 1
    outer loop
      vertex -18.35 6.5 15
      vertex -18.35 0 15
      vertex -8.5 0 15
    endloop
  endfacet
  facet normal 0 0 1
    outer loop
      vertex -8.5 6.5 15
      vertex -18.35 6.5 15
      vertex -8.5 0 15
    endloop
  endfacet
  facet normal 0 0.707107 0.707107
    outer loop
      vertex -8.5 6.5 15
      vertex -8.5 8.5 13
      vertex -16.5895 8.5 13
    endloop
  endfacet
  facet normal 0 0.707107 0.707107
    outer loop
      vertex -18.35 6.73947 14.7605
      vertex -8.5 6.5 15
      vertex -16.5895 8.5 13
    endloop
  endfacet
  facet normal 0 0.707107 0.707107
    outer loop
      vertex -18.35 6.5 15
      vertex -8.5 6.5 15
      vertex -18.35 6.73947 14.7605
    endloop
  endfacet
  facet normal 0 1 0
    outer loop
      vertex -8.5 8.5 13
      vertex -8.5 8.5 3
      vertex -16.5895 8.5 13
    endloop
  endfacet
  facet normal 0 1 0
    outer loop
      vertex -16.5895 8.5 13
      vertex -8.5 8.5 3
      vertex -16.5895 8.5 3
    endloop
  endfacet
  facet normal 0 -1 0
    outer loop
      vertex -8.5 10.5 3
      vertex -8.5 10.5 13
      vertex -21.35 10.5 13
    endloop
  endfacet
  facet normal 0 -1 0
    outer loop
      vertex -21.35 10.5 3
      vertex -8.5 10.5 3
      vertex -21.35 10.5 13
    endloop
  endfacet
  facet normal 0.707107 0.707107 0
    outer loop
      vertex -31.65 6.75 14.75
      vertex -31.65 6.75 3
      vertex -33.4 8.5 13
    endloop
  endfacet
  facet normal 0.707107 0.707107 0
    outer loop
      vertex -33.4 8.5 13
      vertex -31.65 6.75 3
      vertex -33.4 8.5 3
    endloop
  endfacet
  facet normal -0.707107 0.707107 0
    outer loop
      vertex -16.5895 8.5 13
      vertex -16.5895 8.5 3
      vertex -18.35 6.73947 14.7605
    endloop
  endfacet
  facet normal -0.707107 0.707107 0
    outer loop
      vertex -18.35 6.73947 14.7605
      vertex -16.5895 8.5 3
      vertex -18.35 6.73947 3
    endloop
  endfacet
endsolid OpenSCAD_Model
